{
  "accessors": [
    {
      "bufferView": 2,
      "componentType": 5126,
      "count": 439,
      "max": [
        30.953163146972656,
        1.8161429166793823,
        86.01029205322266
      ],
      "min": [
        -30.917936325073242,
        -59.33738327026367,
        -0.058331236243247986
      ],
      "type": "VEC3"
    },
    {
      "bufferView": 2,
      "byteOffset": 5268,
      "componentType": 5126,
      "count": 439,
      "max": [
        0.9999998211860657,
        0.9720867276191711,
        0.9999872446060181
      ],
      "min": [
        -1.0,
        -0.9999865889549255,
        -0.9999989867210388
      ],
      "type": "VEC3"
    },
    {
      "bufferView": 1,
      "componentType": 5126,
      "count": 439,
      "max": [
        3.5655500888824463,
        -0.014891999773681164
      ],
      "min": [
        0.7907710075378418,
        -0.9948729872703552
      ],
      "type": "VEC2"
    },
    {
      "bufferView": 0,
      "componentType": 5125,
      "count": 1458,
      "type": "SCALAR"
    },
    {
      "bufferView": 2,
      "byteOffset": 10536,
      "componentType": 5126,
      "count": 119,
      "max": [
        30.953163146972656,
        31.4161376953125,
        77.79075622558594
      ],
      "min": [
        -30.917936325073242,
        -8.527567863464355,
        20.76283073425293
      ],
      "type": "VEC3"
    },
    {
      "bufferView": 2,
      "byteOffset": 11964,
      "componentType": 5126,
      "count": 119,
      "max": [
        0.9947661757469177,
        0.9762566685676575,
        0.9969321489334106
      ],
      "min": [
        -0.9946890473365784,
        -0.5346186757087708,
        -0.9650823473930359
      ],
      "type": "VEC3"
    },
    {
      "bufferView": 1,
      "byteOffset": 3512,
      "componentType": 5126,
      "count": 119,
      "max": [
        1.6418499946594238,
        0.3645020127296448
      ],
      "min": [
        -0.5003659725189209,
        -1.337649941444397
      ],
      "type": "VEC2"
    },
    {
      "bufferView": 0,
      "byteOffset": 5832,
      "componentType": 5125,
      "count": 240,
      "type": "SCALAR"
    },
    {
      "bufferView": 2,
      "byteOffset": 13392,
      "componentType": 5126,
      "count": 439,
      "max": [
        30.953163146972656,
        1.8161429166793823,
        86.01029205322266
      ],
      "min": [
        -30.917936325073242,
        -59.33738327026367,
        -0.058331236243247986
      ],
      "type": "VEC3"
    },
    {
      "bufferView": 2,
      "byteOffset": 18660,
      "componentType": 5126,
      "count": 439,
      "max": [
        0.9999998211860657,
        0.9720867276191711,
        0.9999872446060181
      ],
      "min": [
        -1.0,
        -0.9999865889549255,
        -0.9999989867210388
      ],
      "type": "VEC3"
    },
    {
      "bufferView": 1,
      "byteOffset": 4464,
      "componentType": 5126,
      "count": 439,
      "max": [
        3.5655500888824463,
        -0.014891999773681164
      ],
      "min": [
        0.7907710075378418,
        -0.9948729872703552
      ],
      "type": "VEC2"
    },
    {
      "bufferView": 0,
      "byteOffset": 6792,
      "componentType": 5125,
      "count": 1458,
      "type": "SCALAR"
    },
    {
      "bufferView": 2,
      "byteOffset": 23928,
      "componentType": 5126,
      "count": 119,
      "max": [
        30.953163146972656,
        31.4161376953125,
        77.79075622558594
      ],
      "min": [
        -30.917936325073242,
        -8.527567863464355,
        20.76283073425293
      ],
      "type": "VEC3"
    },
    {
      "bufferView": 2,
      "byteOffset": 25356,
      "componentType": 5126,
      "count": 119,
      "max": [
        0.9947661757469177,
        0.9762566685676575,
        0.9969321489334106
      ],
      "min": [
        -0.9946890473365784,
        -0.5346186757087708,
        -0.9650823473930359
      ],
      "type": "VEC3"
    },
    {
      "bufferView": 1,
      "byteOffset": 7976,
      "componentType": 5126,
      "count": 119,
      "max": [
        1.6418499946594238,
        0.3645020127296448
      ],
      "min": [
        -0.5003659725189209,
        -1.337649941444397
      ],
      "type": "VEC2"
    },
    {
      "bufferView": 0,
      "byteOffset": 12624,
      "componentType": 5125,
      "count": 240,
      "type": "SCALAR"
    }
  ],
  "asset": {
    "extras": {
      "author": "Breadbug (https://sketchfab.com/eande941)",
      "license": "CC-BY-4.0 (http://creativecommons.org/licenses/by/4.0/)",
      "source": "https://sketchfab.com/3d-models/pikmin-bulborb-5e40a8bfa6d9499dbf6caa56da5a21c1",
      "title": "Pikmin - Bulborb"
    },
    "generator": "Sketchfab-15.87.0",
    "version": "2.0"
  },
  "bufferViews": [
    {
      "buffer": 0,
      "byteLength": 13584,
      "name": "floatBufferViews",
      "target": 34963
    },
    {
      "buffer": 0,
      "byteLength": 8928,
      "byteOffset": 13584,
      "byteStride": 8,
      "name": "floatBufferViews",
      "target": 34962
    },
    {
      "buffer": 0,
      "byteLength": 26784,
      "byteOffset": 22512,
      "byteStride": 12,
      "name": "floatBufferViews",
      "target": 34962
    }
  ],
  "buffers": [
    {
      "byteLength": 49296,
      "uri": "scene.bin"
    }
  ],
  "extensionsUsed": [
    "KHR_materials_unlit"
  ],
  "images": [
    {
      "uri": "textures/atama_2_baseColor.png"
    },
    {
      "uri": "textures/osiri_1_2_baseColor.png"
    }
  ],
  "materials": [
    {
      "doubleSided": true,
      "extensions": {
        "KHR_materials_unlit": {}
      },
      "name": "atama_2",
      "pbrMetallicRoughness": {
        "baseColorTexture": {
          "index": 0
        },
        "metallicFactor": 0.0
      }
    },
    {
      "doubleSided": true,
      "extensions": {
        "KHR_materials_unlit": {}
      },
      "name": "osiri_1_2",
      "pbrMetallicRoughness": {
        "baseColorTexture": {
          "index": 1
        },
        "metallicFactor": 0.0
      }
    }
  ],
  "meshes": [
    {
      "name": "Object_0",
      "primitives": [
        {
          "attributes": {
            "NORMAL": 1,
            "POSITION": 0,
            "TEXCOORD_0": 2
          },
          "indices": 3,
          "material": 0,
          "mode": 4
        }
      ]
    },
    {
      "name": "Object_1",
      "primitives": [
        {
          "attributes": {
            "NORMAL": 5,
            "POSITION": 4,
            "TEXCOORD_0": 6
          },
          "indices": 7,
          "material": 1,
          "mode": 4
        }
      ]
    },
    {
      "name": "Object_2",
      "primitives": [
        {
          "attributes": {
            "NORMAL": 9,
            "POSITION": 8,
            "TEXCOORD_0": 10
          },
          "indices": 11,
          "material": 0,
          "mode": 4
        }
      ]
    },
    {
      "name": "Object_3",
      "primitives": [
        {
          "attributes": {
            "NORMAL": 13,
            "POSITION": 12,
            "TEXCOORD_0": 14
          },
          "indices": 15,
          "material": 1,
          "mode": 4
        }
      ]
    }
  ],
  "nodes": [
    {
      "children": [
        1
      ],
      "matrix": [
        1.0,
        0.0,
        0.0,
        0.0,
        0.0,
        2.220446049250313e-16,
        -1.0,
        0.0,
        0.0,
        1.0,
        2.220446049250313e-16,
        0.0,
        0.0,
        0.0,
        0.0,
        1.0
      ],
      "name": "Sketchfab_model"
    },
    {
      "children": [
        2
      ],
      "name": "Collada visual scene group"
    },
    {
      "children": [
        3,
        4,
        5,
        6
      ],
      "name": "Object_2"
    },
    {
      "mesh": 0,
      "name": "Object_3"
    },
    {
      "mesh": 1,
      "name": "Object_4"
    },
    {
      "mesh": 2,
      "name": "Object_5"
    },
    {
      "mesh": 3,
      "name": "Object_6"
    }
  ],
  "samplers": [
    {
      "magFilter": 9729,
      "minFilter": 9987,
      "wrapS": 10497,
      "wrapT": 10497
    }
  ],
  "scene": 0,
  "scenes": [
    {
      "name": "Sketchfab_Scene",
      "nodes": [
        0
      ]
    }
  ],
  "textures": [
    {
      "sampler": 0,
      "source": 0
    },
    {
      "sampler": 0,
      "source": 1
    }
  ]
}
